<svg xmlns="http://www.w3.org/2000/svg" width="70" height="52" viewBox="0 0 70 52">
  <defs>
    <style>
      .cls-1 {
        fill: #cdcdcd;
        fill-rule: evenodd;
      }
    </style>
  </defs>
  <path id="Forma_1" data-name="Forma 1" class="cls-1" d="M1106.28,387c-0.99,0-1.99,0-2.98.012a133.916,133.916,0,0,0-16.01.951c-1.82.919-2.76,2.935-3.9,4.529-2.06,3.414-3.02,7.336-4.16,11.105a15.354,15.354,0,0,1-1.33,1.657c-0.48-.115.03-1.182-0.09-1.688,0.28-1.566-1.61-2.52-2.93-1.922-1.34.511-3.36,0.646-3.88,2.205a3.134,3.134,0,0,0,3.55,2.872c0.8,0.128,1.13,1.106,1.62,1.644,0.04,2.855-.61,5.716-0.45,8.592a20.9,20.9,0,0,0,.46,5.48,0.534,0.534,0,0,0,.46.195,1.168,1.168,0,0,0-.06.321v14.815a1.294,1.294,0,0,0,1.25,1.234h4.99a1.287,1.287,0,0,0,1.25-1.234v-5.108h43.83v5.108a1.285,1.285,0,0,0,1.24,1.234h5a1.285,1.285,0,0,0,1.24-1.234V422.952a1.288,1.288,0,0,0-.05-0.34c0.89,0,.67-1.427.81-2.066a59.082,59.082,0,0,0-.46-11.52,3.776,3.776,0,0,1,1.6-2.28c1.64,0.08,3.47-.856,3.72-2.6-0.23-1.621-2.29-1.952-3.58-2.418-1.17-.478-3.15-0.254-3.26,1.285-0.13.7,0.33,1.792,0.01,2.254-0.72-.3-1.01-1.231-1.5-1.814a52.2,52.2,0,0,0-3.6-10.21c-1.18-1.861-2.36-3.9-4.18-5.228-3.14-.655-6.45-0.5-9.66-0.806-2.98-.143-5.97-0.2-8.95-0.208h0Zm-0.25,1.593c5.88,0,11.77.019,12.23,0.063a5.47,5.47,0,0,1,1.12.233c0.46,0.177.64,0.364,1.69,1.745a14.559,14.559,0,0,0,2.58,2.79c2.07,1.828,2.29,2.128,2.88,4.006,0.19,0.6.75,2.342,1.25,3.887s0.9,2.9.89,3l-0.02.189-5.04.044c-9.71.086-20.85,0.106-27.39,0.057-3.63-.028-8.01-0.051-9.72-0.057-2.75-.009-3.13-0.027-3.17-0.126-0.02-.062.33-1.255,0.78-2.652s1.01-3.152,1.25-3.905c0.71-2.218.95-2.6,2.44-3.911a19.938,19.938,0,0,0,3.05-3.162c0.48-.636,1.01-1.294,1.16-1.462a2.6,2.6,0,0,1,1.8-.667C1094.27,388.617,1100.15,388.593,1106.03,388.592ZM1081.39,407.1c3.13,0.648,5.98,2.6,8.84,3.994,1.62,0.6,3.79,2.254,2.51,4.144-2.14,1.5-5.16.5-7.61,0.441-1.95-.553-5.03-0.366-5.97-2.494C1079.04,411.179,1078.57,407.425,1081.39,407.1Zm48.84,0.114c3.17-.113,3.78,5.123,1.78,6.79-3.16,2.016-7.29,1.817-10.93,1.845-1.75.272-3.45-1.838-1.67-3.073a31.008,31.008,0,0,1,10.82-5.562h0Z" transform="translate(-1071 -387)"/>
</svg>
